HIERARCHY
ROOT MidHip
{
    OFFSET 0.0 0.0 0.0
    CHANNELS 6 Xposition Yposition Zposition Zrotation Xrotation Yrotation
    JOINT Spine
    {
        OFFSET 0.0 0.0 14.16082814420067
        CHANNELS 3 Zrotation Xrotation Yrotation
        JOINT MidShoulder
        {
            OFFSET 0.0 0.0 14.16082814420067
            CHANNELS 3 Zrotation Xrotation Yrotation
            JOINT Nose
            {
                OFFSET 0.0 0.0 10.96322681282452
                CHANNELS 3 Zrotation Xrotation Yrotation
                End Site
                {
                    OFFSET 0.0 0.0 4.385290725129807
                }
            }
            JOINT RightShoulder
            {
                OFFSET -9.47881756515158 0.0 0.0
                CHANNELS 3 Zrotation Xrotation Yrotation
                JOINT RightElbow
                {
                    OFFSET -13.952425820390104 0.0 0.0
                    CHANNELS 3 Zrotation Xrotation Yrotation
                    JOINT RightWrist
                    {
                        OFFSET -11.83868652799122 0.0 0.0
                        CHANNELS 3 Zrotation Xrotation Yrotation
                        End Site
                        {
                            OFFSET -3.348486209713766 3.348486209713766 0.0
                        }
                        End Site
                        {
                            OFFSET -4.735474611196488 0.0 0.0
                        }
                        End Site
                        {
                            OFFSET -3.348486209713766 -3.348486209713766 0.0
                        }
                    }
                }
            }
            JOINT LeftShoulder
            {
                OFFSET 9.47881756515158 0.0 0.0
                CHANNELS 3 Zrotation Xrotation Yrotation
                JOINT LeftElbow
                {
                    OFFSET 13.952425820390104 0.0 0.0
                    CHANNELS 3 Zrotation Xrotation Yrotation
                    JOINT LeftWrist
                    {
                        OFFSET 11.83868652799122 0.0 0.0
                        CHANNELS 3 Zrotation Xrotation Yrotation
                        End Site
                        {
                            OFFSET 3.348486209713766 3.348486209713766 0.0
                        }
                        End Site
                        {
                            OFFSET 4.735474611196488 0.0 0.0
                        }
                        End Site
                        {
                            OFFSET 3.348486209713766 -3.348486209713766 0.0
                        }
                    }
                }
            }
        }
    }
    JOINT RightHip
    {
        OFFSET -5.381189499037209 0.0 0.0
        CHANNELS 3 Zrotation Xrotation Yrotation
        JOINT RightKnee
        {
            OFFSET 0.0 0.0 -18.836682106019083
            CHANNELS 3 Zrotation Xrotation Yrotation
            JOINT RightAnkle
            {
                OFFSET 0.0 0.0 -20.108163479905215
                CHANNELS 3 Zrotation Xrotation Yrotation
                End Site
                {
                    OFFSET 0.0 5.687447501539466 -5.687447501539466
                }
                End Site
                {
                    OFFSET 0.0 -5.687447501539466 -5.687447501539466
                }
            }
        }
    }
    JOINT LeftHip
    {
        OFFSET 5.381189499037209 0.0 0.0
        CHANNELS 3 Zrotation Xrotation Yrotation
        JOINT LeftKnee
        {
            OFFSET 0.0 0.0 -18.836682106019083
            CHANNELS 3 Zrotation Xrotation Yrotation
            JOINT LeftAnkle
            {
                OFFSET 0.0 0.0 -20.108163479905215
                CHANNELS 3 Zrotation Xrotation Yrotation
                End Site
                {
                    OFFSET 0.0 5.687447501539466 -5.687447501539466
                }
                End Site
                {
                    OFFSET 0.0 -5.687447501539466 -5.687447501539466
                }
            }
        }
    }
}
MOTION
Frames: 12
Frame Time: 0.03333333333333333
-15.355766130451878 42.12981113809956 22.84511928281838 84.21082884059057 6.782572451904928 93.89295295282396 -1.048310231905529 -9.709265585522466 -5.479565320957249 -7.782734902177927 6.562292177193863e-15 -2.7415254494601567e-15 0.0 0.0 0.0 -23.515478109869623 -29.078591918161628 -3.4437733952659593 75.03172467255449 -1.144209767207123e-14 7.651574517153458e-16 23.876175322771587 33.650264307990966 -13.781297766495728 -6.107778697524798 12.967113112447874 3.165283617164026 -21.59521764441247 8.631870890776052e-15 -1.1305280472441317e-14 -22.066722059302162 70.41135482108282 -159.09716402045436 -1.1004987901732173 -10.182688333002588 6.996307896530667 4.9390842789604195 20.160206441349537 -4.415201673541846 0.0 0.0 0.0 -2.6530201911462075 -23.406877586585985 -31.949151123403855 -5.662152745262587 11.791644489631855 6.5673433609382155 0.0 0.0 0.0
-15.350362948317214 42.0649807735094 22.645567119770693 84.57324424887949 6.937178504469328 94.34133205123439 -0.978601104554996 -9.116969142520427 -5.528737778890164 -7.134481918802095 -6.150890752470664e-15 -3.570179737781884e-15 0.0 0.0 0.0 -22.2507621543755 -31.87072492648922 -2.483042111087129 73.61377761389545 -1.5261756470064122e-14 -4.4695627854347415e-15 17.050649697496013 31.76400332358443 -9.171390499254278 -6.72326201500255 10.756983603668209 3.4831417970425025 -22.396659600244128 6.857681063248915e-15 -1.8846354670478626e-15 -23.482783451312976 62.43319911350805 -158.93669539598744 -1.039265242860711 -9.671704710682516 6.822240965958102 4.856054379797584 20.158597177645344 -4.025875476802978 -3.1805546814635168e-15 0.0 0.0 -2.5560099466437136 -22.735325693445095 -32.89132374168189 -5.884349165862986 11.717715993318503 7.9828419629850815 0.0 0.0 0.0
-15.329268365179832 42.008051301817055 22.367700001580427 84.68722150655736 8.234932165984068 94.8412758438592 -0.958547472970848 -8.849530502454037 -5.822893824827292 -7.650382822435772 -4.243661471179084e-16 6.346938293405591e-15 -6.3611093629270335e-15 0.0 0.0 -20.47555301819747 -35.206967655676735 -2.1319906300129854 73.91099325634215 -0.0 0.0 9.22729223002458 25.942348602347455 -4.065061105488954 -8.20506510520534 10.61027138429029 4.0868534435481925 -21.913684881062995 -1.3094827258212165e-14 7.044689260961575e-16 -18.36185447625512 57.576670734831325 -164.34851520064245 -0.9541872624187749 -8.809912605363964 6.529858265233054 4.591208168010074 19.50155607591493 -3.6820002281281083 0.0 0.0 0.0 -2.625792888512751 -23.091891533276428 -33.23724931131324 -6.048254002349805 11.898492068569048 9.283858989454151 0.0 0.0 0.0
-15.324345424593607 41.82652204954324 22.05562589765387 84.7063325096799 8.626059198197092 95.27557723318706 -0.9651951283453679 -8.775487825064996 -6.14325928272717 -7.110302725301519 0.0 0.0 6.3611093629270335e-15 0.0 0.0 -18.145343308204588 -37.60863783379889 -0.06364929279414255 72.94426506270452 -2.924714980967033e-14 -2.1114248653356455e-15 8.08882796833502 25.4795707389432 -3.498675535688885 -7.3501621415720395 10.829591734231979 3.7362461915678393 -27.58289821570811 -1.6960709809834738e-14 2.3866790982830168e-15 -22.74245434735333 63.45297714051892 -159.4447123832176 -0.9574127300309727 -8.705825647266678 6.664645336456396 4.712164655059052 19.63760790151974 -4.152742381775672 0.0 0.0 0.0 -2.6613986576443205 -23.050840823537236 -33.57336742016428 -6.203628155042132 12.073561076773915 10.373572802370425 0.0 0.0 0.0
-15.148386585269492 41.695321935310616 21.71517000922097 84.9569316747855 9.927364881218251 95.58067389847868 -0.9681994717606585 -8.952316551931485 -5.975632246885785 -7.771968520870589 5.6998341037148425e-15 9.950826913039071e-15 0.0 0.0 0.0 -14.433772589370943 -41.007471506217044 1.2120598369960884 70.85422485419852 -3.687324079710588e-15 -5.183372787896356e-15 3.6980799312592816 -24.329495652451534 1.5253066176539423 -6.15009379845073 11.464753400852466 3.437207146270393 -34.93507913596076 -1.4044946223287324e-14 2.249010275778427e-15 -22.02706525124216 64.23461569025037 -159.98061066627136 -0.8314201585448034 -7.704111559623935 6.534807883541901 4.6802931116164475 19.884112081234242 -3.289871550802252 0.0 0.0 0.0 -2.582830234608926 -22.788178537255842 -33.591862748289465 -6.109177366556452 11.822948231292697 10.441578600972388 0.0 0.0 0.0
-15.076162335747 41.6600298968504 21.38553550401375 85.01522791816889 11.317284205003112 96.04809592138648 -1.1634981712189039 -10.668830128785384 -8.519501560253765 -2.8253619586878154 1.24047054980277e-14 1.3031998316610742e-14 0.0 0.0 0.0 -5.301488227249623 -40.49040515411832 11.430960303951949 66.5974604243792 1.1467385503014695e-14 7.832488992581237e-17 10.457349865032013 6.741304966968957 -1.2411742928670928 7.017308902635489 29.206426634398067 5.738477982152001 -125.65166653882984 7.22494370935527e-15 1.0591695790833707e-14 -11.790506730230902 25.961415703251202 -174.7789066005928 -0.7405895558121683 -6.838139132796775 6.917799634276721 4.728272026251155 19.485479866889378 -3.825157242793309 -3.531125038440127e-31 -6.3611093629270335e-15 -6.3611093629270335e-15 -2.684785018276296 -23.488780365091817 -33.52201439990117 -6.283991582597242 12.220143380973695 10.242506859012755 0.0 0.0 0.0
-15.122360503526414 41.60325526456211 21.159900724788557 85.03021484930947 11.632086549527632 96.54864516428859 -1.2435895582192447 -10.197334508148801 -7.933461557183652 -5.27520646619566 -5.854587318606675e-16 1.2708740589915273e-14 0.0 0.0 0.0 -3.4115764601776757 -51.91170184239154 1.7066408322504125 64.68747003720055 -3.4031769637882157e-15 -5.374206814057232e-15 158.8953761086908 -66.62536253044854 160.49152991637564 -8.980774775646033 14.07609255677362 8.223849037112714 -46.109411249432426 -1.587817714262988e-14 -3.3011544576909434e-15 -148.09386576199066 -11.104157220644893 -173.1624626806243 -0.8641811821522746 -7.125327062974716 5.774644090057338 4.827325803436681 20.46413372939988 -2.294010262412984 0.0 6.3611093629270335e-15 0.0 -2.930151427518864 -22.961571915714327 -33.373649970542004 -5.999337124927348 12.147893755830413 10.298116890217793 0.0 0.0 0.0
-15.056404612071589 41.43876564879512 20.87306634052007 85.07934696908832 11.591837855182078 97.16504947424198 -1.1758826078107294 -9.703564095911982 -7.040277403293687 -5.636962537590245 1.843466733923798e-14 1.364519330548916e-14 6.3611093629270335e-15 6.3611093629270335e-15 -3.531125038440127e-31 -4.127145767756718 -56.66651433374409 0.14331338622750964 67.65536641271245 -2.293523982152649e-14 5.50870365810509e-17 17.06231622577386 -5.628047344055182 1.7240653233317575 -8.731045269138313 10.754301870480335 6.398575048590056 -46.76907998690727 -4.812853874201511e-15 3.1166013301939773e-15 -37.51475185597807 30.24846500756911 -158.85613545832496 -0.8451930593096404 -7.007213739454973 4.853833739111629 4.548718506596099 20.872626820224095 -1.1784049756161727 -3.1805546814635168e-15 0.0 0.0 -2.8334052853690825 -22.38654357193445 -33.14142479736612 -5.90436398446259 12.045661767617048 9.937522180617878 -6.3611093629270335e-15 0.0 0.0
-15.000063003489872 41.20188506498689 20.491667752717674 84.9677865890304 14.003241441213587 97.68663955403927 -1.429266250665836 -10.699073105282016 -8.094735182076079 -5.553549540017252 6.353640510037715e-15 3.081632624529604e-16 0.0 0.0 0.0 11.361572235881813 -56.58262944622178 12.176920074971664 63.7410853063505 -1.0804258507656263e-14 6.7173541970190266e-15 24.13375779188527 -12.246074033637846 5.428613923005698 -0.13932780030807848 16.662468864654482 8.769568045687194 -83.37218511896552 -7.866227360977207e-16 -6.290336206411066e-15 -22.071441887253098 7.282552686910494 -177.0576234096256 -0.7650449060565024 -5.7752017477088575 5.5688142666151075 4.921797169653586 20.197172158272718 -2.385009773014743 0.0 0.0 0.0 -3.282590733405596 -23.448039236693 -32.8402817497319 -5.978874727296717 12.795280237980478 10.251637660793428 0.0 0.0 0.0
-14.982537743468496 41.152481800697046 20.211474250624615 84.85003915367209 15.965974080611259 98.5573008912414 -1.8097939821084628 -12.353903722049534 -10.179473889096156 0.01452046747155478 -8.0604786360496115e-19 -6.361109311857862e-15 6.3611093629270335e-15 0.0 0.0 41.64195817963927 -54.876619885907374 21.51580071071598 60.96565462410152 -3.712785934079082e-15 -1.2577201516949464e-14 24.283701911419495 11.508550323565881 -5.143661801040498 19.927506260295743 22.934440402321826 4.300355997503685 -132.87691841035885 4.493651081281528e-16 5.00878140909001e-15 -10.444235963387989 6.0522555314758435 -178.88658616490142 -0.6567339628677513 -4.544846281239209 5.237753535538805 4.866119953200141 19.502989917260667 -2.3030001424436954 0.0 0.0 0.0 -3.7330139540117515 -24.300332041265225 -33.237964581662006 -6.222696090104533 13.542409357075506 10.928282833514931 0.0 0.0 0.0
-14.965224486455936 41.00394812554597 19.883618966261057 84.74597662144453 18.020596253548124 99.18163955577961 -1.898825048771291 -13.019251058903777 -10.973558213644049 6.293466988710452 1.9752918785274765e-14 1.1655490539435611e-14 3.1805546814635168e-15 0.0 0.0 47.43162112452564 -44.0077597690404 16.943152371005045 62.20380542384218 1.3616748629318085e-14 -8.21476468381483e-15 27.599949426305756 20.19007558291957 -10.227955843423308 -116.44321548724037 -16.441317969492356 173.35095039102484 -148.54295320947935 -1.2914408355779441e-14 6.9412915626696096e-15 -20.85999620039255 -8.826362366389732 176.65369632448406 -0.5095825869422782 -3.5513930270720255 4.802910838814665 4.605013194477646 19.21263549331113 -1.4625467764414763 3.1805546814635168e-15 0.0 0.0 -3.964760068377801 -25.757147790819165 -33.25768690526362 -6.638418773434949 14.428134623958101 11.063888124430854 0.0 0.0 0.0
-14.9079849125706 40.90617448153054 19.656771972219946 84.7792692728004 17.831169251945166 99.96245505107046 -1.7383859203774001 -10.336578150068576 -7.873190970593325 -4.384888445827952 0.0 0.0 0.0 0.0 0.0 18.579188825314933 -72.8470211365687 17.776231729826698 80.21275741823047 6.5305287781779335e-15 2.816351236313984e-15 32.099322103312616 -7.10882878535084 4.4389081993884885 -10.055277404658101 5.856351534251069 11.868501831039058 -60.809848748733074 -2.44168796722217e-14 1.3329834407387745e-14 -22.17880133790279 30.97622530512587 -168.15032542402398 -0.5978344331391022 -3.589626631017194 3.216204750942404 4.594977154003868 19.601620418252807 0.16194570025327393 0.0 0.0 0.0 -4.426797393783199 -24.894415074723153 -33.833681875705615 -6.239186512798211 14.08951751336792 11.300824243411684 0.0 0.0 0.0
